<svg xmlns="http://www.w3.org/2000/svg" fill="none" viewBox="0 0 50 50" id="Vitest--Streamline-Svg-Logos" height="50" width="50">
    <path fill="#fcc72b" d="M37.261250000000004 16.210416666666667 25.55703125 33.133125c-0.1240625 0.17942708333333332 -0.30354166666666665 0.3138541666666667 -0.5111458333333334 0.3828125 -0.20760416666666667 0.06901041666666667 -0.43203125000000003 0.06833333333333334 -0.6392187500000001 -0.0009375000000000001 -0.20713541666666668 -0.06963541666666667 -0.38578125 -0.20473958333333336 -0.5088020833333333 -0.38447916666666665 -0.12296875000000002 -0.18005208333333336 -0.18364583333333337 -0.3951041666666667 -0.17265625 -0.6124479166666666l0.4683854166666667 -9.343072916666667 -7.562135416666667 -1.6038020833333335c-0.16161458333333337 -0.03421875 -0.31218750000000006 -0.10765625000000001 -0.43843750000000004 -0.21369791666666668 -0.12619791666666666 -0.10604166666666667 -0.22416666666666668 -0.24151041666666667 -0.28520833333333334 -0.3943229166666667 -0.06098958333333333 -0.15286458333333333 -0.08317708333333335 -0.31833333333333336 -0.06458333333333334 -0.48187500000000005 0.018593750000000003 -0.16348958333333335 0.07734375 -0.32 0.17114583333333336 -0.4555729166666667L27.71875 3.1029531250000004c0.12411458333333335 -0.1795260416666667 0.30354166666666665 -0.31390104166666666 0.5111458333333334 -0.38279166666666664 0.20765625000000001 -0.06888541666666667 0.4320833333333334 -0.06853125 0.6392708333333335 0.0010677083333333335 0.2071875 0.06957291666666668 0.38583333333333336 0.2045625 0.5088020833333333 0.38450520833333335 0.12296875000000002 0.1799166666666667 0.18364583333333337 0.3949375 0.17265625 0.612453125l-0.4684375 9.343218750000002 7.562083333333334 1.6035937500000002c0.16161458333333337 0.034270833333333334 0.31218750000000006 0.10765625000000001 0.43854166666666666 0.21369791666666668 0.12630208333333334 0.10609375 0.22411458333333337 0.24151041666666667 0.28500000000000003 0.39437500000000003 0.061197916666666664 0.15281250000000002 0.08322916666666667 0.31833333333333336 0.06479166666666666 0.4818229166666667 -0.018489583333333334 0.16354166666666667 -0.07744791666666667 0.3198958333333333 -0.1713541666666667 0.4555208333333334Z" stroke-width="0.5208" />
    <path fill="#729b1b" d="M25.00453125 47.33083333333334c-0.31130208333333337 0.0003125 -0.6195833333333334 -0.06057291666666667 -0.9071875 -0.17979166666666668 -0.2876041666666667 -0.11916666666666667 -0.5488541666666668 -0.2940625 -0.7686458333333334 -0.5143229166666667L12.269479166666668 35.57833333333333c-0.4423958333333334 -0.4446875 -0.6903645833333333 -1.0467708333333332 -0.6895833333333334 -1.6741145833333335 0.0008333333333333334 -0.62734375 0.2504166666666667 -1.2291145833333335 0.6940625 -1.6725 0.44359375000000006 -0.4436979166666667 1.0451041666666667 -0.6934375 1.6724479166666668 -0.694375 0.6274479166666668 -0.0006770833333333334 1.2295833333333333 0.24713541666666666 1.6744270833333335 0.68953125l9.383697916666668 9.382656250000002 20.442552083333332 -20.44151041666667c0.44562500000000005 -0.4384895833333334 1.0464062500000002 -0.6830729166666668 1.6715104166666668 -0.6805208333333334 0.6254166666666667 0.0025520833333333333 1.22421875 0.25203125000000004 1.6659895833333336 0.6940625 0.4420833333333334 0.4420833333333334 0.6918229166666667 1.0409375 0.6944270833333334 1.6660937500000002 0.0022395833333333334 0.62515625 -0.24229166666666668 1.2260416666666667 -0.6808333333333333 1.6716666666666669L26.680000000000003 46.63671875000001c-0.21979166666666666 0.22057291666666667 -0.48098958333333336 0.39515625000000004 -0.7684895833333334 0.5143229166666667 -0.28750000000000003 0.11921875 -0.5957291666666666 0.18010416666666668 -0.9069791666666668 0.17979166666666668Z" stroke-width="0.5208" />
    <path fill="#729b1b" fill-opacity=".5" d="M24.99515625 47.33083333333334c0.31130208333333337 0.0003125 0.6196354166666667 -0.06057291666666667 0.9072395833333334 -0.17979166666666668 0.2876041666666667 -0.11916666666666667 0.5488020833333335 -0.2940625 0.7686458333333334 -0.5143229166666667L37.73020833333333 35.57833333333333c0.4424479166666667 -0.4446875 0.6905208333333335 -1.0467708333333332 0.68953125 -1.6741145833333335 -0.000625 -0.62734375 -0.25036458333333333 -1.2291145833333335 -0.6940625 -1.6725 -0.4436979166666667 -0.4436979166666667 -1.04515625 -0.6934375 -1.6725 -0.694375 -0.62734375 -0.0006770833333333334 -1.2294270833333334 0.24713541666666666 -1.6744270833333335 0.68953125L24.99515625 41.60953125 4.552687500000001 21.168020833333337c-0.4456510416666667 -0.4384895833333334 -1.0465052083333335 -0.6830729166666668 -1.6716510416666668 -0.6805208333333334 -0.6251770833333333 0.0025520833333333333 -1.2240260416666668 0.25203125000000004 -1.666078125 0.6940625 -0.44206770833333336 0.4420833333333334 -0.6915416666666667 1.0409375 -0.6941041666666667 1.6660937500000002 -0.0025276041666666667 0.62515625 0.2420625 1.2260416666666667 0.680515625 1.6716666666666669L23.319687500000004 46.63671875000001c0.21984375 0.22057291666666667 0.48098958333333336 0.39515625000000004 0.7684895833333334 0.5143229166666667 0.2875520833333334 0.11921875 0.59578125 0.18010416666666668 0.9069791666666668 0.17979166666666668Z" stroke-width="0.5208" />
</svg>